<svg xmlns="http://www.w3.org/2000/svg" viewBox="0 0 2400 1260" width="4800" height="2520">
    <rect width="2400" height="1260" fill="#ffffff"/>
    
    <g transform="translate(566, 534)">
        <!-- Logo -->
        <g transform="scale(8)">
            <path stroke="#000000" stroke-width="1.5" fill="none" stroke-linecap="round" stroke-linejoin="round" d="M12 5a3 3 0 1 0-5.997.125 4 4 0 0 0-2.526 5.77 4 4 0 0 0 .556 6.588A4 4 0 1 0 12 18Z"/>
            <path stroke="#000000" stroke-width="1.5" fill="none" stroke-linecap="round" stroke-linejoin="round" d="M12 5a3 3 0 1 1 5.997.125 4 4 0 0 1 2.526 5.77 4 4 0 0 1-.556 6.588A4 4 0 1 1 12 18Z"/>
            <path stroke="#000000" stroke-width="1.5" fill="none" stroke-linecap="round" stroke-linejoin="round" d="M12 5v14"/>
            <path stroke="#000000" stroke-width="1.5" fill="none" stroke-linecap="round" stroke-linejoin="round" d="M12 9h4"/>
            <path stroke="#000000" stroke-width="1.5" fill="none" stroke-linecap="round" stroke-linejoin="round" d="M12 14h-4"/>
        </g>

        <!-- Text -->
        <text x="260" y="145" font-family="Arial, sans-serif" font-size="160" font-weight="bold" fill="#000000" letter-spacing="-4">Cortex OS</text>
        <text x="270" y="210" font-family="Courier New, monospace" font-size="34" font-weight="bold" fill="#4b5563" letter-spacing="8">INTELLIGENCE BUILT ON STRUCTURE</text>
    </g>
</svg>